<svg width="555" height="103" viewBox="0 0 555 103" fill="none" xmlns="http://www.w3.org/2000/svg">
<g filter="url(#filter0_d_108_6830)">
<path d="M14 43C14 30.3988 14 24.0982 16.4524 19.2852C18.6095 15.0516 22.0516 11.6095 26.2852 9.45235C31.0982 7 37.3988 7 50 7H53C65.6012 7 71.9018 7 76.7148 9.45235C80.9484 11.6095 84.3905 15.0516 86.5476 19.2852C89 24.0982 89 30.3988 89 43V46C89 58.6012 89 64.9018 86.5476 69.7148C84.3905 73.9484 80.9484 77.3905 76.7148 79.5477C71.9018 82 65.6012 82 53 82H50C37.3988 82 31.0982 82 26.2852 79.5477C22.0516 77.3905 18.6095 73.9484 16.4524 69.7148C14 64.9018 14 58.6012 14 46V43Z" fill="#00D64F"/>
<path fill-rule="evenodd" clip-rule="evenodd" d="M53.4471 31.4647C57.3333 31.4647 61.0582 33.0383 63.4921 35.1984C64.1075 35.7449 65.029 35.7415 65.6066 35.1562L68.5023 32.2192C69.1133 31.5994 69.091 30.5844 68.4311 30.0179C66.488 28.3475 63.8794 26.7049 60.6687 25.6532L61.5768 21.3285C61.7738 20.3859 61.056 19.5 60.0922 19.5H54.4966C53.781 19.5 53.1622 20.0008 53.0131 20.7008L52.1951 24.547C44.7566 24.9187 38.452 28.6302 38.452 36.2457C38.452 42.8384 43.6682 45.6641 49.1736 47.6194C54.3897 49.5748 57.1419 50.3004 57.1419 53.0526C57.1419 55.8782 54.3897 57.5442 50.3321 57.5442C46.6329 57.5442 42.7578 56.3233 39.7508 53.3586C39.1609 52.7766 38.2172 52.7721 37.6274 53.3541L34.5157 56.4235C33.907 57.0233 33.9126 58.0094 34.5258 58.6037C36.9519 60.9585 40.0234 62.6635 43.529 63.6183L42.6755 67.6248C42.4762 68.564 43.1874 69.4499 44.1489 69.4577L49.7534 69.5C50.4746 69.5055 51.1011 69.0014 51.2481 68.2947L52.0571 64.443C60.9636 63.8932 66.4145 59.0522 66.4145 51.9664C66.4145 45.4471 60.9825 42.6938 54.3897 40.448C50.6226 39.0702 47.3618 38.1298 47.3618 35.3053C47.3618 32.5531 50.4056 31.4647 53.4471 31.4647Z" fill="white"/>
</g>
<path d="M147.519 33.5225L151.254 31.1712C152.429 30.4105 152.706 29.4424 151.876 28.3359C147.243 22.0428 140.535 19 132.928 19C118.751 19 109 29.4424 109 44.5181C109 59.7322 118.751 70.1745 133.135 70.1745C141.434 70.1745 147.727 66.6476 152.153 60.4237C152.913 59.2481 152.637 58.2799 151.461 57.5884L147.658 55.3754C146.551 54.753 145.583 54.9605 144.822 55.9978C142.194 59.663 138.46 61.9451 133.204 61.9451C124.145 61.9451 118.543 54.8222 118.543 44.5181C118.543 34.3524 124.076 27.2294 133.066 27.2294C137.838 27.2294 141.779 29.0966 144.615 32.9001C145.445 33.9374 146.413 34.2141 147.519 33.5225Z" fill="black"/>
<path d="M182.183 69.2755H186.332C187.646 69.2755 188.406 68.5148 188.406 67.2009V43.9649C188.406 35.4588 182.39 31.9319 173.815 31.9319C168.836 31.9319 163.995 33.2459 160.26 35.2514C159.085 35.8738 158.877 36.9111 159.431 38.0867L160.745 40.7838C161.367 42.0285 162.335 42.236 163.58 41.6136C166.623 40.0922 170.219 39.2623 173.123 39.2623C176.097 39.2623 179.624 40.0922 179.624 43.135C179.624 46.5928 175.129 46.9385 169.873 47.6992C164.963 48.3908 157.01 49.9122 157.01 58.8332C157.01 66.0252 162.197 70.1054 169.665 70.1054C174.714 70.1054 177.895 68.3074 180.108 65.4029V67.3392C180.108 68.584 180.869 69.2755 182.183 69.2755ZM179.624 51.2261V55.3754C179.624 60.8386 175.682 63.1899 171.464 63.1899C168.075 63.1899 165.724 61.6685 165.724 58.4182C165.724 54.8913 168.49 54.0615 171.671 53.4391C174.921 52.8858 177.964 52.4709 179.624 51.2261Z" fill="black"/>
<path d="M197.391 60.1471L195.386 62.4984C194.556 63.5357 194.556 64.573 195.593 65.472C199.258 68.4457 204.237 70.1054 210.046 70.1054C219.659 70.1054 225.745 65.4029 225.745 57.7958C225.745 50.6037 220.212 48.1142 211.499 46.5928C207.419 45.9012 203.338 45.348 203.338 42.4435C203.338 39.8156 206.243 38.8474 209.562 38.8474C213.158 38.8474 216.478 40.0231 218.829 41.6828C219.866 42.5126 220.904 42.5126 221.734 41.4753L223.67 39.1932C224.569 38.1559 224.569 37.1186 223.462 36.2887C220.351 33.9374 215.786 31.9319 209.908 31.9319C202.025 31.9319 195.109 35.3205 195.109 43.3425C195.109 51.0187 201.61 53.2316 208.318 54.4072C214.68 55.5137 217.308 56.067 217.308 58.8332C217.308 61.876 214.403 63.1207 210.531 63.1207C207.073 63.1207 203.338 62.2217 200.365 59.9396C199.258 59.1098 198.221 59.1098 197.391 60.1471Z" fill="black"/>
<path d="M234.506 69.2755H239.14C240.453 69.2755 241.214 68.5148 241.214 67.2009V48.6674C241.214 43.135 244.81 39.8156 249.513 39.8156C254.492 39.8156 255.737 43.3425 255.737 47.2151V67.2009C255.737 68.5148 256.497 69.2755 257.811 69.2755H262.445C263.759 69.2755 264.519 68.5148 264.519 67.2009V45.2097C264.519 37.3952 260.024 31.9319 252.348 31.9319C247.507 31.9319 243.565 34.0757 241.214 37.326V21.9737C241.214 20.6597 240.453 19.899 239.14 19.899H234.506C233.192 19.899 232.432 20.6597 232.432 21.9737V67.2009C232.432 68.5148 233.192 69.2755 234.506 69.2755Z" fill="black"/>
<path d="M325.511 69.2755H331.459C332.98 69.2755 333.671 68.3074 333.118 66.8551L316.383 21.5587C315.968 20.3831 315.207 19.899 314.032 19.899H306.632C305.456 19.899 304.696 20.3831 304.281 21.5587L287.476 66.8551C286.923 68.3074 287.614 69.2755 289.136 69.2755H294.737C295.913 69.2755 296.743 68.7223 297.089 67.6158L300.685 57.0351H319.564L323.16 67.6158C323.506 68.7223 324.336 69.2755 325.511 69.2755ZM310.228 27.921L317.213 49.3589H302.967L310.228 27.921Z" fill="black"/>
<path d="M345.451 32.7618H340.818C339.504 32.7618 338.743 33.5225 338.743 34.8364V79.2338C338.743 80.5477 339.504 81.3085 340.818 81.3085H345.451C346.765 81.3085 347.526 80.5477 347.526 79.2338V64.573C350.084 68.3074 354.234 70.1054 358.798 70.1054C368.756 70.1054 375.188 61.8068 375.188 50.9495C375.188 40.1614 368.756 31.9319 358.798 31.9319C354.303 31.9319 350.084 33.6608 347.526 37.3952V34.8364C347.526 33.5225 346.765 32.7618 345.451 32.7618ZM347.526 50.9495C347.526 44.6564 350.707 39.6081 356.931 39.6081C363.016 39.6081 365.99 44.7256 365.99 50.9495C365.99 57.2426 363.016 62.4292 356.931 62.4292C350.776 62.4292 347.526 57.3117 347.526 50.9495Z" fill="black"/>
<path d="M388.673 32.7618H384.039C382.725 32.7618 381.965 33.5225 381.965 34.8364V79.2338C381.965 80.5477 382.725 81.3085 384.039 81.3085H388.673C389.987 81.3085 390.747 80.5477 390.747 79.2338V64.573C393.306 68.3074 397.455 70.1054 402.02 70.1054C411.978 70.1054 418.409 61.8068 418.409 50.9495C418.409 40.1614 411.978 31.9319 402.02 31.9319C397.525 31.9319 393.306 33.6608 390.747 37.3952V34.8364C390.747 33.5225 389.987 32.7618 388.673 32.7618ZM390.747 50.9495C390.747 44.6564 393.928 39.6081 400.152 39.6081C406.238 39.6081 409.212 44.7256 409.212 50.9495C409.212 57.2426 406.238 62.4292 400.152 62.4292C393.998 62.4292 390.747 57.3117 390.747 50.9495Z" fill="black"/>
<path d="M451.661 51.4336H463.418C474.69 51.4336 481.121 45.2097 481.121 35.6663C481.121 26.1921 474.621 19.899 463.418 19.899H444.538C443.225 19.899 442.464 20.6597 442.464 21.9737V67.2009C442.464 68.5148 443.225 69.2755 444.538 69.2755H449.587C450.901 69.2755 451.661 68.5148 451.661 67.2009V51.4336ZM463.349 43.0659H451.661V28.2667H463.349C468.812 28.2667 471.785 30.8946 471.785 35.5971C471.785 40.3688 468.812 43.0659 463.349 43.0659Z" fill="black"/>
<path d="M509.304 69.2755H513.453C514.767 69.2755 515.528 68.5148 515.528 67.2009V43.9649C515.528 35.4588 509.512 31.9319 500.936 31.9319C495.957 31.9319 491.116 33.2459 487.382 35.2514C486.206 35.8738 485.999 36.9111 486.552 38.0867L487.866 40.7838C488.489 42.0285 489.457 42.236 490.701 41.6136C493.744 40.0922 497.34 39.2623 500.245 39.2623C503.218 39.2623 506.745 40.0922 506.745 43.135C506.745 46.5928 502.25 46.9385 496.995 47.6992C492.085 48.3908 484.132 49.9122 484.132 58.8332C484.132 66.0252 489.318 70.1054 496.787 70.1054C501.835 70.1054 505.017 68.3074 507.229 65.4029V67.3392C507.229 68.584 507.99 69.2755 509.304 69.2755ZM506.745 51.2261V55.3754C506.745 60.8386 502.804 63.1899 498.585 63.1899C495.197 63.1899 492.845 61.6685 492.845 58.4182C492.845 54.8913 495.611 54.0615 498.793 53.4391C502.043 52.8858 505.086 52.4709 506.745 51.2261Z" fill="black"/>
<path d="M524.259 75.9835L523.429 79.0955C523.083 80.4094 523.498 81.3776 524.743 81.6542C525.711 81.8617 526.956 82 528.477 82C534.563 82 537.951 79.4413 541.617 69.7596L554.756 35.1822C555.309 33.73 554.618 32.7618 553.096 32.7618H548.048C546.872 32.7618 546.112 33.315 545.697 34.4215L537.536 58.1416L529.307 34.4215C528.892 33.315 528.132 32.7618 526.956 32.7618H521.423C519.902 32.7618 519.28 33.73 519.833 35.1822L532.972 68.7223C531.313 73.1482 529.999 74.6696 527.371 74.6696C526.956 74.6696 526.472 74.6696 526.057 74.5313C525.227 74.3238 524.605 74.7388 524.259 75.9835Z" fill="black"/>
<defs>
<filter id="filter0_d_108_6830" x="0.567165" y="0.283583" width="101.866" height="101.866" filterUnits="userSpaceOnUse" color-interpolation-filters="sRGB">
<feFlood flood-opacity="0" result="BackgroundImageFix"/>
<feColorMatrix in="SourceAlpha" type="matrix" values="0 0 0 0 0 0 0 0 0 0 0 0 0 0 0 0 0 0 127 0" result="hardAlpha"/>
<feOffset dy="6.71642"/>
<feGaussianBlur stdDeviation="6.71642"/>
<feColorMatrix type="matrix" values="0 0 0 0 0 0 0 0 0 0 0 0 0 0 0 0 0 0 0.04 0"/>
<feBlend mode="normal" in2="BackgroundImageFix" result="effect1_dropShadow_108_6830"/>
<feBlend mode="normal" in="SourceGraphic" in2="effect1_dropShadow_108_6830" result="shape"/>
</filter>
</defs>
</svg>
