<svg width="135" height="24" viewBox="0 0 135 24" fill="none" xmlns="http://www.w3.org/2000/svg">
<g clip-path="url(#clip0_2124_11791)">
<path fill-rule="evenodd" clip-rule="evenodd" d="M8.35887 0.000923151C5.95268 0.000923151 4.74866 0.000923172 3.46247 0.400724C2.04332 0.915016 0.924245 2.03409 0.409957 3.45509C0 4.75421 0 5.95638 0 8.36349V15.6264C0 18.0464 0 19.2384 0.399801 20.5348C0.914093 21.9548 2.03316 23.0739 3.45231 23.5882C4.75051 24 5.95268 24 8.35887 24H15.6291C18.0381 24 19.2393 24 20.5348 23.5882C21.9549 23.0739 23.073 21.9548 23.5873 20.5348C23.9973 19.2356 23.9973 18.0335 23.9973 15.6264V8.37365C23.9973 5.96377 23.9973 4.7616 23.5873 3.46525C23.073 2.04517 21.9539 0.926097 20.5348 0.411804C19.2273 0 18.0381 0 15.6171 0H8.35795L8.35887 0.000923151Z" fill="#101010"/>
<path d="M12.9695 10.8345C15.4981 11.3763 16.654 12.4239 16.654 14.1938C16.654 16.4127 14.8472 18.0506 12.0266 18.224L11.7514 19.5365C11.7245 19.6648 11.6114 19.7566 11.4803 19.7566H9.31039C9.13155 19.7566 8.99959 19.5897 9.04088 19.4157L9.38916 17.9479C7.99106 17.5501 6.86604 16.7763 6.21019 15.8212C6.12762 15.7009 6.15502 15.5366 6.27016 15.4471L7.78682 14.2674C7.91182 14.1702 8.091 14.1987 8.1834 14.3273C8.98707 15.4459 10.22 16.1083 11.7053 16.1083C13.0418 16.1083 14.0532 15.4581 14.0532 14.5189C14.0532 13.7965 13.5475 13.4714 11.8497 13.1102C8.92385 12.4961 7.76794 11.4124 7.76794 9.64245C7.76794 7.58881 9.49388 6.03746 12.0973 5.83597L12.3815 4.48041C12.4084 4.35212 12.5216 4.26025 12.6526 4.26025H14.7934C14.97 4.26025 15.1015 4.4233 15.0641 4.59591L14.735 6.11476C15.8554 6.4596 16.7675 7.07619 17.3354 7.83706C17.4234 7.95499 17.4007 8.12199 17.287 8.2153L15.9032 9.34998C15.783 9.44858 15.6074 9.42705 15.5096 9.30612C14.8064 8.43629 13.6992 7.94471 12.4999 7.94471C11.1634 7.94471 10.3326 8.52266 10.3326 9.35347C10.3326 10.0398 10.9828 10.401 12.9695 10.8345Z" fill="white"/>
<path d="M36.6206 16.2066C37.8933 16.2066 38.8435 15.4736 39.2525 14.2539C39.3017 14.1071 39.4579 14.0259 39.6046 14.0753L41.2382 14.6262C41.3868 14.6763 41.4649 14.8401 41.4095 14.9868C40.6518 16.9934 38.9914 18.2444 36.6206 18.2444C33.3786 18.2444 31.0207 15.676 31.0207 12.013C31.0207 8.34988 33.3786 5.78149 36.6206 5.78149C38.9914 5.78149 40.6518 7.03253 41.4095 9.03913C41.4649 9.18581 41.3868 9.34963 41.2382 9.39973L39.6046 9.9506C39.458 10.0001 39.3017 9.91877 39.2525 9.77201C38.8435 8.55228 37.8933 7.81933 36.6206 7.81933C34.7006 7.81933 33.3449 9.47827 33.3449 12.013C33.3449 14.5476 34.7006 16.2066 36.6206 16.2066Z" fill="#101010"/>
<path d="M47.6854 13.9329L45.8665 14.3118C45.0497 14.4802 44.4434 14.7413 44.4434 15.4907C44.4434 16.1392 44.9234 16.5097 45.6644 16.5097C46.7002 16.5097 47.6854 15.9623 47.6854 14.9266V13.9329ZM42.2792 15.6002C42.2792 13.874 43.6182 13.1329 45.3612 12.796L47.6854 12.3329V12.1897C47.6854 11.3898 47.2728 10.893 46.2455 10.893C45.4156 10.893 44.9436 11.2303 44.6989 11.9049C44.6523 12.0335 44.5173 12.1077 44.3834 12.0799L42.8619 11.7645C42.6939 11.7297 42.5986 11.5523 42.6598 11.3919C43.1686 10.0585 44.4437 9.04028 46.3297 9.04028C48.5107 9.04028 49.8244 10.0592 49.8244 12.1055V15.8192C49.8244 16.2161 49.9634 16.3905 50.3048 16.4058C50.4544 16.4125 50.5738 16.5326 50.5738 16.6823V17.8117C50.5738 17.954 50.4655 18.0739 50.3239 18.0878C48.9963 18.2174 48.2298 17.9158 47.9044 17.2254C47.3402 17.8486 46.4307 18.2107 45.2771 18.2107C43.5677 18.2107 42.2792 17.1749 42.2792 15.6002Z" fill="#101010"/>
<path d="M52.4877 15.3163C52.6037 15.2107 52.7849 15.2218 52.885 15.3425C53.474 16.0525 54.4165 16.5012 55.3315 16.5012C56.1567 16.5012 56.8977 16.2149 56.8977 15.4991C56.8977 14.7834 56.1982 14.7024 54.7925 14.4213C53.3771 14.1382 51.7863 13.7728 51.7863 11.8781C51.7863 10.2193 53.2431 9.04028 55.323 9.04028C56.7633 9.04028 58.0596 9.60888 58.7728 10.4334C58.8689 10.5445 58.8658 10.7101 58.7619 10.814L57.8004 11.7754C57.6882 11.8877 57.5026 11.8847 57.3988 11.7646C56.8539 11.1347 56.0827 10.7834 55.2304 10.7834C54.4472 10.7834 53.9336 11.1287 53.9336 11.6677C53.9336 12.274 54.5483 12.3834 55.6515 12.6108C57.1756 12.9308 59.0366 13.2676 59.0366 15.2802C59.0366 17.0991 57.3609 18.2444 55.2977 18.2444C53.7804 18.2444 52.226 17.6955 51.3792 16.6744C51.2861 16.5621 51.3017 16.3951 51.4096 16.2969L52.4877 15.3163Z" fill="#101010"/>
<path d="M60.4419 5.9668H62.0773C62.2303 5.9668 62.3543 6.09081 62.3543 6.24379V10.1351C62.8512 9.55411 63.6512 9.04042 64.788 9.04042C66.6406 9.04042 67.7606 10.312 67.7606 12.2235V17.7823C67.7606 17.9352 67.6366 18.0593 67.4836 18.0593H65.8482C65.6952 18.0593 65.5712 17.9352 65.5712 17.7823V12.8551C65.5712 11.8109 65.1501 11.0614 64.0891 11.0614C63.2217 11.0614 62.3543 11.693 62.3543 12.9057V17.7823C62.3543 17.9352 62.2303 18.0593 62.0773 18.0593H60.4419C60.2889 18.0593 60.1649 17.9352 60.1649 17.7823V6.24379C60.1649 6.09081 60.2889 5.9668 60.4419 5.9668Z" fill="#101010"/>
<path d="M75.7012 13.3857H79.3138L77.4949 8.5352L75.7012 13.3857ZM78.9182 6.14614L83.2652 17.6846C83.3334 17.8658 83.1995 18.0593 83.006 18.0593H81.2575C81.1419 18.0593 81.0385 17.9876 80.998 17.8793L80.0633 15.3814H74.9601L74.0335 17.8786C73.9933 17.9872 73.8897 18.0593 73.7738 18.0593H72.0677C71.8742 18.0593 71.7403 17.8659 71.8084 17.6848L76.1474 6.1463C76.188 6.03831 76.2913 5.9668 76.4066 5.9668H78.659C78.7743 5.9668 78.8775 6.03823 78.9182 6.14614Z" fill="#101010"/>
<path d="M86.4629 13.8992C86.4629 15.4655 87.3555 16.3496 88.5429 16.3496C89.9408 16.3496 90.6902 15.2465 90.6902 13.6381C90.6902 12.0382 89.9408 10.935 88.5429 10.935C87.3555 10.935 86.4629 11.8024 86.4629 13.3939V13.8992ZM86.5134 17.1413V20.7968C86.5134 20.9497 86.3894 21.0738 86.2364 21.0738H84.601C84.448 21.0738 84.324 20.9497 84.324 20.7968V9.48572C84.324 9.33273 84.448 9.20872 84.601 9.20872H86.2364C86.3894 9.20872 86.5134 9.33273 86.5134 9.48572V10.135C87.0524 9.48662 87.8945 9.04028 89.0228 9.04028C91.4818 9.04028 92.8965 11.1287 92.8965 13.6381C92.8965 16.156 91.4818 18.2444 89.0228 18.2444C87.8945 18.2444 87.0524 17.7981 86.5134 17.1413Z" fill="#101010"/>
<path d="M96.1889 13.8992C96.1889 15.4655 97.0815 16.3496 98.2688 16.3496C99.6667 16.3496 100.416 15.2465 100.416 13.6381C100.416 12.0382 99.6667 10.935 98.2688 10.935C97.0815 10.935 96.1889 11.8024 96.1889 13.3939V13.8992ZM96.2394 17.1413V20.7968C96.2394 20.9497 96.1153 21.0738 95.9624 21.0738H94.3269C94.1739 21.0738 94.0499 20.9497 94.0499 20.7968V9.48572C94.0499 9.33273 94.1739 9.20872 94.3269 9.20872H95.9624C96.1153 9.20872 96.2394 9.33273 96.2394 9.48572V10.135C96.7783 9.48662 97.6204 9.04028 98.7488 9.04028C101.208 9.04028 102.622 11.1287 102.622 13.6381C102.622 16.156 101.208 18.2444 98.7488 18.2444C97.6204 18.2444 96.7783 17.7981 96.2394 17.1413Z" fill="#101010"/>
<path d="M112.567 11.5162C114.066 11.5162 114.849 10.8594 114.849 9.73098C114.849 8.58572 114.066 7.94573 112.567 7.94573H110.117V11.5162H112.567ZM109.84 18.0593H108.078C107.925 18.0593 107.801 17.9352 107.801 17.7823V6.24379C107.801 6.09081 107.925 5.9668 108.078 5.9668H112.694C115.43 5.9668 117.14 7.25524 117.14 9.73098C117.14 12.1815 115.43 13.4952 112.694 13.4952H110.117V17.7823C110.117 17.9352 109.993 18.0593 109.84 18.0593Z" fill="#101010"/>
<path d="M122.967 13.9329L121.148 14.3118C120.331 14.4802 119.725 14.7413 119.725 15.4907C119.725 16.1392 120.205 16.5097 120.946 16.5097C121.982 16.5097 122.967 15.9623 122.967 14.9266V13.9329ZM117.561 15.6002C117.561 13.874 118.9 13.1329 120.643 12.796L122.967 12.3329V12.1897C122.967 11.3898 122.554 10.893 121.527 10.893C120.697 10.893 120.225 11.2303 119.98 11.9049C119.934 12.0335 119.799 12.1077 119.665 12.0799L118.143 11.7645C117.975 11.7297 117.88 11.5523 117.941 11.3919C118.45 10.0585 119.725 9.04028 121.611 9.04028C123.792 9.04028 125.106 10.0592 125.106 12.1055V15.8192C125.106 16.2161 125.245 16.3905 125.586 16.4058C125.736 16.4125 125.855 16.5326 125.855 16.6823V17.8117C125.855 17.954 125.747 18.0739 125.605 18.0878C124.278 18.2174 123.511 17.9158 123.186 17.2254C122.622 17.8486 121.712 18.2107 120.558 18.2107C118.849 18.2107 117.561 17.1749 117.561 15.6002Z" fill="#101010"/>
<path d="M127.96 21.1496C127.662 21.1496 127.5 21.1418 127.335 21.1262C127.193 21.1128 127.084 20.993 127.084 20.8504V19.6007C127.084 19.4393 127.222 19.312 127.383 19.3246C127.499 19.3338 127.611 19.3391 127.758 19.3391C128.407 19.3391 128.735 19.1623 129.004 18.4886L129.316 17.7223L126.257 9.5832C126.189 9.40208 126.323 9.20874 126.516 9.20874H128.201C128.319 9.20874 128.424 9.28343 128.463 9.39485L130.487 15.2213L132.461 9.39682C132.499 9.28439 132.604 9.20874 132.723 9.20874H134.356C134.55 9.20874 134.683 9.40195 134.615 9.58305L131.185 18.7244C130.647 20.1812 129.855 21.1496 127.96 21.1496Z" fill="#101010"/>
</g>
<defs>
<clipPath id="clip0_2124_11791">
<rect width="134.633" height="24" fill="white"/>
</clipPath>
</defs>
</svg>
